<mxfile host="app.diagrams.net" modified="2023-10-11T03:20:20.644Z" agent="Mozilla/5.0 (Windows NT 10.0; Win64; x64) AppleWebKit/537.36 (KHTML, like Gecko) Chrome/117.0.0.0 Safari/537.36" version="22.0.4" etag="IqM6l8w1EZ2fQrHFn5N5" type="github">
  <diagram name="Trang-1" id="bukiZnmm_7Uz3k9HjcU0">
    <mxGraphModel>
      <root>
        <mxCell id="0" />
        <mxCell id="1" parent="0" />
      </root>
    </mxGraphModel>
  </diagram>
</mxfile>
